<svg
        xmlns="http://www.w3.org/2000/svg"
        xmlns:xlink="http://www.w3.org/1999/xlink"
        width="240px" height="483px">
    <path fill-rule="evenodd"  fill="rgb(242, 242, 242)"
          d="M27.000,0.000 L188.000,0.000 C202.912,0.000 215.000,12.088 215.000,27.000 L215.000,431.000 C215.000,445.912 202.912,458.000 188.000,458.000 L27.000,458.000 C12.088,458.000 -0.000,445.912 -0.000,431.000 L-0.000,27.000 C-0.000,12.088 12.088,0.000 27.000,0.000 Z"/>
    <path fill-rule="evenodd"  fill="rgb(172, 172, 172)"
          d="M92.500,36.000 L123.500,36.000 C124.881,36.000 126.000,37.119 126.000,38.500 C126.000,39.881 124.881,41.000 123.500,41.000 L92.500,41.000 C91.119,41.000 90.000,39.881 90.000,38.500 C90.000,37.119 91.119,36.000 92.500,36.000 Z"/>
    <path fill-rule="evenodd"  fill="rgb(250, 250, 250)"
          d="M107.191,407.807 C118.749,407.807 128.119,417.153 128.119,428.682 C128.119,440.211 118.749,449.557 107.191,449.557 C95.632,449.557 86.263,440.211 86.263,428.682 C86.263,417.153 95.632,407.807 107.191,407.807 Z"/>
    <path fill-rule="evenodd"  fill="rgb(186, 186, 186)"
          d="M111.699,436.716 L102.879,436.716 C100.824,436.716 99.158,435.055 99.158,433.004 L99.158,424.207 C99.158,422.157 100.824,420.495 102.879,420.495 L111.699,420.495 C113.755,420.495 115.421,422.157 115.421,424.207 L115.421,433.004 C115.421,435.055 113.755,436.716 111.699,436.716 ZM113.674,425.136 C113.674,423.523 112.363,422.214 110.745,422.214 L103.803,422.214 C102.185,422.214 100.873,423.523 100.873,425.136 L100.873,432.061 C100.873,433.675 102.185,434.983 103.803,434.983 L110.745,434.983 C112.363,434.983 113.674,433.675 113.674,432.061 L113.674,425.136 Z"/>
    <path fill-rule="evenodd"  fill="rgb(216, 216, 216)"
          d="M107.272,16.508 C109.720,16.508 111.705,18.486 111.705,20.926 C111.705,23.366 109.720,25.344 107.272,25.344 C104.823,25.344 102.839,23.366 102.839,20.926 C102.839,18.486 104.823,16.508 107.272,16.508 Z"/>
    <path fill-rule="evenodd"  fill="rgb(235, 80, 85)"
          d="M107.272,18.963 C108.360,18.963 109.242,19.843 109.242,20.928 C109.242,22.013 108.360,22.893 107.272,22.893 C106.184,22.893 105.302,22.013 105.302,20.928 C105.302,19.843 106.184,18.963 107.272,18.963 Z"/>
</svg>
